<svg width="17" height="17" viewBox="0 0 17 17" fill="none" xmlns="http://www.w3.org/2000/svg">
<path d="M16.3441 1.76077C16.6492 1.45567 16.6492 0.961013 16.3441 0.655916C16.039 0.350819 15.5443 0.350819 15.2392 0.655916L8.49999 7.39517L1.76074 0.655919C1.45564 0.350822 0.960983 0.350822 0.655886 0.655919C0.350789 0.961017 0.350789 1.45568 0.655886 1.76077L7.39514 8.50003L0.655914 15.2393C0.350817 15.5443 0.350817 16.039 0.655914 16.3441C0.961011 16.6492 1.45567 16.6492 1.76077 16.3441L8.49999 9.60488L15.2392 16.3441C15.5443 16.6492 16.039 16.6492 16.3441 16.3441C16.6492 16.039 16.6492 15.5444 16.3441 15.2393L9.60485 8.50003L16.3441 1.76077Z" fill="#2D264B"/>
</svg>
