<svg width="19" height="13" viewBox="0 0 19 13" fill="none" xmlns="http://www.w3.org/2000/svg">
<path d="M5.88325 1.84654C6.18971 1.54281 6.19191 1.04815 5.88818 0.7417C5.58445 0.435244 5.08979 0.433037 4.78334 0.73677L2.91382 2.58967C2.20969 3.28753 1.63419 3.8579 1.22606 4.36609C0.801655 4.89456 0.494433 5.43095 0.412365 6.07482C0.37638 6.35714 0.37638 6.64284 0.412364 6.92516C0.494433 7.56903 0.801654 8.10542 1.22606 8.63389C1.63419 9.14209 2.20969 9.71245 2.91383 10.4103L4.78334 12.2632C5.08979 12.5669 5.58445 12.5647 5.88818 12.2583C6.19191 11.9518 6.1897 11.4572 5.88325 11.1534L4.04682 9.33332C3.30152 8.59464 2.79027 8.08626 2.44433 7.6555C2.3319 7.51552 2.24419 7.39228 2.17608 7.28124H17.8333C18.2648 7.28124 18.6145 6.93146 18.6145 6.49999C18.6145 6.06852 18.2648 5.71874 17.8333 5.71874H2.17608C2.24419 5.6077 2.3319 5.48446 2.44433 5.34447C2.79027 4.91372 3.30152 4.40534 4.04682 3.66666L5.88325 1.84654Z" fill="#3A3548"/>
</svg>
