<svg width="17" height="15" viewBox="0 0 17 15" fill="none" xmlns="http://www.w3.org/2000/svg">
<path d="M1.20833 0.46875C0.776856 0.46875 0.427078 0.818528 0.427078 1.25C0.427078 1.68147 0.776856 2.03125 1.20833 2.03125H15.7917C16.2231 2.03125 16.5729 1.68147 16.5729 1.25C16.5729 0.818528 16.2231 0.46875 15.7917 0.46875H1.20833Z" fill="#3A3548"/>
<path d="M1.20833 6.71875C0.776856 6.71875 0.427078 7.06853 0.427078 7.5C0.427078 7.93147 0.776856 8.28125 1.20833 8.28125H7.45833C7.8898 8.28125 8.23958 7.93147 8.23958 7.5C8.23958 7.06853 7.8898 6.71875 7.45833 6.71875H1.20833Z" fill="#3A3548"/>
<path d="M1.20833 12.9688C0.776856 12.9688 0.427078 13.3185 0.427078 13.75C0.427078 14.1815 0.776856 14.5312 1.20833 14.5312H15.7917C16.2231 14.5312 16.5729 14.1815 16.5729 13.75C16.5729 13.3185 16.2231 12.9688 15.7917 12.9688H1.20833Z" fill="#3A3548"/>
</svg>
