<svg width="14" height="14" viewBox="0 0 14 14" fill="none" xmlns="http://www.w3.org/2000/svg">
<path fill-rule="evenodd" clip-rule="evenodd" d="M13.1066 2.67496C13.2953 2.52402 13.3259 2.2487 13.1749 2.06002C13.024 1.87135 12.7487 1.84076 12.56 1.9917L10.6202 3.54352C9.64185 2.66485 8.39394 1.89583 6.99998 1.89583C5.75108 1.89583 4.62187 2.51357 3.70515 3.26416C2.78343 4.01885 2.02975 4.94587 1.5233 5.65134L1.48153 5.70942C1.17665 6.13306 0.92568 6.48178 0.925676 6.99998C0.925673 7.51817 1.1766 7.86684 1.48142 8.29041L1.52317 8.34847C1.84184 8.79238 2.25693 9.32192 2.74878 9.84068L0.893338 11.325C0.704661 11.476 0.67407 11.7513 0.825012 11.94C0.975954 12.1286 1.25127 12.1592 1.43995 12.0083L13.1066 2.67496ZM6.99998 2.77083C8.03698 2.77083 9.043 3.33042 9.92672 4.09833L8.40032 5.31945C8.02116 5.00327 7.53276 4.8125 6.99998 4.8125C5.79185 4.8125 4.81248 5.79187 4.81248 7C4.81248 7.35897 4.89921 7.69827 5.05275 7.99751L3.43464 9.29199C2.95572 8.7935 2.54797 8.27559 2.23397 7.8382C1.8701 7.33132 1.80067 7.20913 1.80068 6.99998C1.80068 6.79085 1.87012 6.66862 2.2341 6.16162C2.71784 5.48779 3.42034 4.62824 4.25947 3.94118C5.10362 3.25001 6.03994 2.77083 6.99998 2.77083ZM6.99998 5.6875C7.25443 5.6875 7.49191 5.75972 7.69317 5.88517L5.76 7.4317C5.71299 7.29662 5.68748 7.15144 5.68748 7C5.68748 6.27512 6.2751 5.6875 6.99998 5.6875Z" fill="#3A3548" fill-opacity="0.3"/>
<path d="M11.8973 4.89461C11.7444 4.70752 11.4687 4.6798 11.2816 4.8327C11.0946 4.98561 11.0668 5.26123 11.2197 5.44832C11.4242 5.69849 11.6072 5.94062 11.7658 6.16157C12.1298 6.66861 12.1993 6.79086 12.1993 6.99999C12.1993 7.20913 12.1298 7.33136 11.7659 7.83837C11.2821 8.5122 10.5796 9.37175 9.74048 10.0588C8.89634 10.75 7.96001 11.2292 6.99998 11.2292C6.1805 11.2292 5.37725 10.8803 4.6302 10.3438C4.43395 10.2028 4.1606 10.2476 4.01964 10.4439C3.87868 10.6401 3.9235 10.9135 4.11975 11.0544C4.95073 11.6513 5.93107 12.1042 6.99998 12.1042C8.24887 12.1042 9.37808 11.4864 10.2948 10.7358C11.2165 9.98114 11.9702 9.05412 12.4767 8.34865L12.5184 8.29057C12.8233 7.86693 13.0743 7.5182 13.0743 6.99999C13.0743 6.48179 12.8233 6.13304 12.5184 5.70938L12.4766 5.65129C12.3088 5.41754 12.1147 5.16071 11.8973 4.89461Z" fill="#3A3548" fill-opacity="0.3"/>
<path d="M9.18748 7C9.18748 6.75837 8.9916 6.5625 8.74998 6.5625C8.50835 6.5625 8.31248 6.75837 8.31248 7C8.31248 7.72487 7.72485 8.3125 6.99998 8.3125C6.75835 8.3125 6.56248 8.50837 6.56248 8.75C6.56248 8.99162 6.75835 9.1875 6.99998 9.1875C8.2081 9.1875 9.18748 8.20812 9.18748 7Z" fill="#3A3548" fill-opacity="0.3"/>
</svg>
