<svg width="16" height="19" viewBox="0 0 16 19" fill="none" xmlns="http://www.w3.org/2000/svg">
<path fill-rule="evenodd" clip-rule="evenodd" d="M7.14668 0C4.05534 0 1.66353 2.75827 2.04697 5.88107L2.11921 6.46946C2.22493 7.33045 1.916 8.19044 1.28963 8.77888C-0.00831799 9.99821 -0.368927 11.9389 0.401871 13.5567L0.495962 13.7541C1.17526 15.1798 2.55458 16.1135 4.09436 16.211L4.26577 16.5102C5.18783 18.1194 6.62446 19 8.13303 19C9.64161 19 11.0782 18.1194 12.0003 16.5102L12.1744 16.2063C13.4678 16.1022 14.6471 15.3866 15.3504 14.2614C16.4267 12.5399 16.1416 10.2815 14.6729 8.89289L14.6329 8.85512C13.9605 8.21943 13.6295 7.29334 13.7433 6.3664L13.8021 5.88729C14.186 2.76119 11.7916 0 8.69703 0H7.14668ZM4.47845 14.8293C4.48666 14.8291 4.49487 14.8291 4.50307 14.8293H11.763C11.7712 14.8291 11.7794 14.8291 11.7876 14.8293H11.8465C12.7996 14.8293 13.6866 14.3336 14.1984 13.515C14.9207 12.3595 14.7294 10.8436 13.7436 9.9116L13.7036 9.87382C12.7094 8.93388 12.22 7.56454 12.3883 6.19396L12.4471 5.71485C12.729 3.41852 10.9702 1.39024 8.69703 1.39024H7.14668C4.87675 1.39024 3.12048 3.4156 3.40203 5.70863L3.47428 6.29703C3.63466 7.6032 3.16599 8.90788 2.21574 9.80058C1.36018 10.6043 1.12248 11.8836 1.63056 12.9499L1.72465 13.1474C2.21479 14.1761 3.23914 14.8293 4.36219 14.8293H4.47845ZM8.13303 17.6098C7.29442 17.6098 6.39969 17.1813 5.70838 16.2195H10.5577C9.86637 17.1813 8.97164 17.6098 8.13303 17.6098Z" fill="#3A3548"/>
</svg>
