<svg width="16" height="16" viewBox="0 0 16 16" fill="none" xmlns="http://www.w3.org/2000/svg">
<path d="M8.13326 11.5867C7.66659 11.5867 7.19326 11.4067 6.83993 11.0533C6.49326 10.7067 6.29993 10.2467 6.29993 9.76001C6.29993 9.27334 6.49326 8.80668 6.83993 8.46668L7.77991 7.52667C7.97324 7.33334 8.29324 7.33334 8.48657 7.52667C8.67991 7.72001 8.67991 8.04001 8.48657 8.23334L7.54659 9.17334C7.38659 9.33334 7.29993 9.54001 7.29993 9.76001C7.29993 9.98001 7.38659 10.1933 7.54659 10.3467C7.87326 10.6733 8.39994 10.6733 8.7266 10.3467L10.2066 8.86666C11.0532 8.01999 11.0532 6.64668 10.2066 5.80001C9.35992 4.95334 7.9866 4.95334 7.13993 5.80001L5.52657 7.41333C5.18657 7.75333 4.99992 8.20001 4.99992 8.67334C4.99992 9.14668 5.18657 9.6 5.52657 9.93333C5.7199 10.1267 5.7199 10.4467 5.52657 10.64C5.33324 10.8333 5.01324 10.8333 4.81991 10.64C4.29324 10.1133 4.00659 9.41334 4.00659 8.66667C4.00659 7.92 4.29324 7.22001 4.81991 6.69334L6.43327 5.08C7.6666 3.84667 9.67991 3.84667 10.9132 5.08C12.1466 6.31333 12.1466 8.32667 10.9132 9.56L9.43327 11.04C9.07327 11.4067 8.60659 11.5867 8.13326 11.5867Z" fill="white"/>
<path d="M9.99992 15.1667H5.99992C2.37992 15.1667 0.833252 13.62 0.833252 10V6.00001C0.833252 2.38001 2.37992 0.833344 5.99992 0.833344H9.99992C13.6199 0.833344 15.1666 2.38001 15.1666 6.00001V10C15.1666 13.62 13.6199 15.1667 9.99992 15.1667ZM5.99992 1.83334C2.92659 1.83334 1.83325 2.92668 1.83325 6.00001V10C1.83325 13.0733 2.92659 14.1667 5.99992 14.1667H9.99992C13.0733 14.1667 14.1666 13.0733 14.1666 10V6.00001C14.1666 2.92668 13.0733 1.83334 9.99992 1.83334H5.99992Z" fill="white"/>
</svg>
