<svg width="18" height="15" viewBox="0 0 18 15" fill="none" xmlns="http://www.w3.org/2000/svg">
<path d="M0.870968 0C0.389946 0 0 0.373096 0 0.833333C0 1.29357 0.389946 1.66667 0.870968 1.66667H17.129C17.6101 1.66667 18 1.29357 18 0.833333C18 0.373096 17.6101 0 17.129 0H0.870968Z" fill="#0B0D16"/>
<path d="M0.870968 6.66667C0.389946 6.66667 0 7.03976 0 7.5C0 7.96024 0.389946 8.33333 0.870968 8.33333H17.129C17.6101 8.33333 18 7.96024 18 7.5C18 7.03976 17.6101 6.66667 17.129 6.66667H0.870968Z" fill="#0B0D16"/>
<path d="M0.870968 13.3333C0.389946 13.3333 0 13.7064 0 14.1667C0 14.6269 0.389946 15 0.870968 15H17.129C17.6101 15 18 14.6269 18 14.1667C18 13.7064 17.6101 13.3333 17.129 13.3333H0.870968Z" fill="#0B0D16"/>
</svg>
