<svg width="8" height="16" viewBox="0 0 8 16" fill="none" xmlns="http://www.w3.org/2000/svg">
<path d="M6.32094 15.7341C6.72636 16.1091 7.35905 16.0845 7.73408 15.6791C8.10912 15.2736 8.08448 14.6409 7.67906 14.2659L6.32094 15.7341ZM4.35555 12.5538L5.03461 11.8197L4.35555 12.5538ZM4.35555 3.44623L3.67649 2.71215L4.35555 3.44623ZM7.67906 1.73408C8.08448 1.35905 8.10912 0.726365 7.73408 0.320941C7.35905 -0.0844821 6.72636 -0.109118 6.32094 0.265916L7.67906 1.73408ZM1.02983 8.43867L0.0390313 8.57398L0.0390315 8.57398L1.02983 8.43867ZM1.02983 7.56133L0.0390315 7.42602L0.0390314 7.42602L1.02983 7.56133ZM7.67906 14.2659L5.03461 11.8197L3.67649 13.2879L6.32094 15.7341L7.67906 14.2659ZM5.0346 4.18032L7.67906 1.73408L6.32094 0.265916L3.67649 2.71215L5.0346 4.18032ZM5.03461 11.8197C3.96259 10.828 3.2223 10.1411 2.72075 9.55825C2.23033 8.98829 2.0644 8.62377 2.02064 8.30336L0.0390315 8.57398C0.157633 9.44243 0.600104 10.16 1.20472 10.8627C1.79822 11.5525 2.6396 12.3287 3.67649 13.2879L5.03461 11.8197ZM3.67649 2.71215C2.6396 3.67131 1.79822 4.44753 1.20472 5.13728C0.600103 5.83995 0.157633 6.55757 0.0390315 7.42602L2.02064 7.69664C2.0644 7.37623 2.23033 7.01171 2.72075 6.44175C3.22229 5.85887 3.96259 5.17197 5.0346 4.18032L3.67649 2.71215ZM2.02064 8.30336C1.99312 8.10186 1.99312 7.89814 2.02064 7.69664L0.0390314 7.42602C-0.0130105 7.8071 -0.0130104 8.1929 0.0390313 8.57398L2.02064 8.30336Z" fill="#0B0D16"/>
</svg>
