<svg width="21" height="21" viewBox="0 0 21 21" fill="none" xmlns="http://www.w3.org/2000/svg">
<path d="M10.4997 1.3125L0.801959 11.3433C0.790175 11.3546 0.782058 11.3693 0.778652 11.3853C0.775245 11.4013 0.776706 11.4179 0.782845 11.4331C0.788985 11.4483 0.799522 11.4613 0.813103 11.4704C0.826683 11.4795 0.842686 11.4844 0.859053 11.4844H3.28094V20.3438H8.20282V14.7656H12.7966V20.3438H17.7184V11.4844H20.1407C20.157 11.4844 20.173 11.4795 20.1866 11.4704C20.2002 11.4613 20.2107 11.4483 20.2169 11.4331C20.223 11.4179 20.2245 11.4013 20.2211 11.3853C20.2177 11.3693 20.2095 11.3546 20.1978 11.3433L10.4997 1.3125Z" stroke="#485056" stroke-width="1.5" stroke-miterlimit="10" stroke-linecap="round" stroke-linejoin="round"/>
</svg>
