<svg width="21" height="21" viewBox="0 0 21 21" fill="none" xmlns="http://www.w3.org/2000/svg">
<g clip-path="url(#clip0_14_811)">
<path d="M0.65625 6.5625V18.375H20.3438V6.5625M0.65625 2.625H20.3438V6.5625H0.65625V2.625Z" stroke="#485056" stroke-width="1.5" stroke-linecap="round" stroke-linejoin="round"/>
<path d="M17.7188 11.8125H16.4062L14.4375 9.84375L12.4688 13.7812L9.1875 9.1875L5.90625 15.0938L4.59375 11.8125H3.28125" stroke="#485056" stroke-width="1.5" stroke-linecap="round" stroke-linejoin="round"/>
<path d="M2.625 4.92188C2.80622 4.92188 2.95312 4.77497 2.95312 4.59375C2.95312 4.41253 2.80622 4.26562 2.625 4.26562C2.44378 4.26562 2.29688 4.41253 2.29688 4.59375C2.29688 4.77497 2.44378 4.92188 2.625 4.92188Z" stroke="#485056" stroke-width="0.5" stroke-linecap="round" stroke-linejoin="round"/>
<path d="M4.92188 4.92188C5.10309 4.92188 5.25 4.77497 5.25 4.59375C5.25 4.41253 5.10309 4.26562 4.92188 4.26562C4.74066 4.26562 4.59375 4.41253 4.59375 4.59375C4.59375 4.77497 4.74066 4.92188 4.92188 4.92188Z" stroke="#485056" stroke-width="0.5" stroke-linecap="round" stroke-linejoin="round"/>
<path d="M7.21875 4.92188C7.39997 4.92188 7.54688 4.77497 7.54688 4.59375C7.54688 4.41253 7.39997 4.26562 7.21875 4.26562C7.03753 4.26562 6.89062 4.41253 6.89062 4.59375C6.89062 4.77497 7.03753 4.92188 7.21875 4.92188Z" stroke="#485056" stroke-width="0.5" stroke-linecap="round" stroke-linejoin="round"/>
</g>
<defs>
<clipPath id="clip0_14_811">
<rect width="21" height="21" fill="white"/>
</clipPath>
</defs>
</svg>
