<svg width="17" height="22" viewBox="0 0 17 22" fill="none" xmlns="http://www.w3.org/2000/svg">
<path d="M1 1V21H15.6667V6.33333L10.3333 1H1Z" stroke="#485056" stroke-width="1.3" stroke-miterlimit="10" stroke-linecap="round" stroke-linejoin="round"/>
<path d="M10.333 1V6.33333H15.6663" stroke="#485056" stroke-width="1.3" stroke-miterlimit="10" stroke-linecap="round" stroke-linejoin="round"/>
<path d="M11 13.5C11 14.1922 10.7947 14.8689 10.4101 15.4445C10.0256 16.0201 9.47893 16.4687 8.83939 16.7336C8.19985 16.9985 7.49612 17.0678 6.81718 16.9327C6.13825 16.7977 5.51461 16.4644 5.02513 15.9749C4.53564 15.4854 4.2023 14.8617 4.06725 14.1828C3.9322 13.5039 4.00152 12.8001 4.26642 12.1606C4.53133 11.5211 4.97993 10.9744 5.55551 10.5899C6.13108 10.2053 6.80777 10 7.5 10H7.79845" stroke="#485056" stroke-width="1.3" stroke-miterlimit="10" stroke-linecap="round" stroke-linejoin="round"/>
<path d="M8 13H12C11.9957 11.9856 11.5813 11.0101 10.8397 10.2685C10.0981 9.52691 9.08398 9.07389 8 9V13Z" stroke="#485056" stroke-width="1.3" stroke-miterlimit="10" stroke-linecap="round" stroke-linejoin="round"/>
</svg>
