<svg width="21" height="21" viewBox="0 0 21 21" fill="none" xmlns="http://www.w3.org/2000/svg">
<g clip-path="url(#clip0_14_829)">
<path d="M0.65625 1.96875H3.9375L7.21875 15.0938H17.7188L20.3438 7.21875H5.25" stroke="#485056" stroke-width="1.5" stroke-miterlimit="10" stroke-linecap="round" stroke-linejoin="round"/>
<path d="M7.54688 19.0312C8.27175 19.0312 8.85938 18.4436 8.85938 17.7188C8.85938 16.9939 8.27175 16.4062 7.54688 16.4062C6.822 16.4062 6.23438 16.9939 6.23438 17.7188C6.23438 18.4436 6.822 19.0312 7.54688 19.0312Z" stroke="#485056" stroke-width="1.5" stroke-miterlimit="10" stroke-linecap="round" stroke-linejoin="round"/>
<path d="M16.0781 19.0312C16.803 19.0312 17.3906 18.4436 17.3906 17.7188C17.3906 16.9939 16.803 16.4062 16.0781 16.4062C15.3533 16.4062 14.7656 16.9939 14.7656 17.7188C14.7656 18.4436 15.3533 19.0312 16.0781 19.0312Z" stroke="#485056" stroke-width="1.5" stroke-miterlimit="10" stroke-linecap="round" stroke-linejoin="round"/>
</g>
<defs>
<clipPath id="clip0_14_829">
<rect width="21" height="21" fill="white"/>
</clipPath>
</defs>
</svg>
