<svg width="20" height="21" viewBox="0 0 20 21" fill="none" xmlns="http://www.w3.org/2000/svg">
<path d="M10.1228 14.5266C12.3814 14.5266 14.2124 12.6956 14.2124 10.437C14.2124 8.17838 12.3814 6.34741 10.1228 6.34741C7.86417 6.34741 6.0332 8.17838 6.0332 10.437C6.0332 12.6956 7.86417 14.5266 10.1228 14.5266Z" stroke="#485056" stroke-width="1.5" stroke-miterlimit="10" stroke-linecap="round" stroke-linejoin="round"/>
<path d="M17.272 11.5568C17.3873 10.815 17.3873 10.0599 17.272 9.31821L18.8805 7.76354C18.9722 7.67489 19.0316 7.55813 19.0494 7.43182C19.0671 7.30551 19.0421 7.17689 18.9783 7.06643L17.423 4.37265C17.3592 4.26215 17.2603 4.17615 17.1421 4.12832C17.0238 4.08049 16.8929 4.07359 16.7702 4.10871L14.5748 4.73788C14.0058 4.29261 13.3733 3.93525 12.6983 3.67773L12.1364 1.43318C12.1055 1.30964 12.0343 1.19995 11.934 1.12148C11.8337 1.04301 11.7101 1.00026 11.5828 1H8.47217C8.34461 0.999979 8.22071 1.0426 8.12016 1.12109C8.01961 1.19958 7.94818 1.30943 7.91724 1.43318L7.33589 3.75921C6.71991 4.01694 6.14261 4.35879 5.62047 4.775L3.285 4.10683C3.16235 4.07171 3.03147 4.07861 2.91319 4.12643C2.79491 4.17426 2.69602 4.26026 2.63224 4.37076L1.07694 7.0658C1.01298 7.1763 0.987833 7.30502 1.00551 7.43147C1.02318 7.55792 1.08266 7.67481 1.17446 7.76354L2.95249 9.48243C2.86613 10.1165 2.86613 10.7594 2.95249 11.3935L1.17446 13.1115C1.08275 13.2001 1.02331 13.3169 1.00558 13.4432C0.987856 13.5695 1.01286 13.6981 1.07663 13.8086L2.63193 16.5024C2.6957 16.6129 2.7946 16.6989 2.91288 16.7467C3.03116 16.7945 3.16203 16.8014 3.28469 16.7663L5.62047 16.1C6.14264 16.5166 6.72005 16.8588 7.33621 17.1167L7.91756 19.4428C7.94866 19.5663 8.02012 19.6759 8.12059 19.7542C8.22106 19.8325 8.34479 19.875 8.47217 19.875H11.5828C11.7101 19.8747 11.8337 19.832 11.934 19.7535C12.0343 19.6751 12.1055 19.5654 12.1364 19.4418L12.697 17.1995C13.372 16.9418 14.0046 16.5844 14.5735 16.139L16.769 16.7682C16.8916 16.8033 17.0225 16.7964 17.1408 16.7486C17.2591 16.7007 17.358 16.6147 17.4217 16.5042L18.977 13.8105C19.0408 13.7 19.0658 13.5714 19.0481 13.4451C19.0304 13.3188 18.9709 13.202 18.8792 13.1133L17.272 11.5568Z" stroke="#485056" stroke-width="1.5" stroke-miterlimit="10" stroke-linecap="round" stroke-linejoin="round"/>
</svg>
