<svg width="172" height="172" viewBox="0 0 172 172" fill="none" xmlns="http://www.w3.org/2000/svg">
<circle cx="86" cy="86" r="86" fill="#EFF4FD"/>
<path d="M99.6829 50.8623L48.3362 62.4207C44.2414 63.3389 41.6552 67.3897 42.5711 71.4945L52.431 115.351L111.159 102.119C112.345 101.849 113.099 100.66 112.829 99.4722L102.269 52.4827C102 51.2944 100.868 50.5923 99.6829 50.8623Z" fill="#4B8EF9"/>
<path d="M102.294 82.4616C109.875 78.2684 112.63 68.7083 108.447 61.1084C104.264 53.5085 94.7275 50.7467 87.1462 54.9399C79.5648 59.133 76.8099 68.6932 80.9928 76.2931C85.1757 83.893 94.7125 86.6547 102.294 82.4616Z" fill="#3E4C56"/>
<path d="M104.231 70.788C105.395 65.5223 102.081 60.3074 96.828 59.1402C91.5752 57.9731 86.3731 61.2956 85.2088 66.5613C84.0444 71.827 87.3589 77.0419 92.6117 78.209C97.8645 79.3762 103.067 76.0537 104.231 70.788Z" fill="#4B8EF9"/>
<path d="M94.2556 72.7823V71.6828C93.6104 71.6828 92.9652 71.4888 92.5781 71.1654L92.8362 70.454C93.2233 70.7127 93.8039 70.9067 94.3846 70.9714C95.1588 70.9714 95.6749 70.5187 95.6749 69.9366C95.6749 69.3545 95.2878 68.9665 94.4491 68.6431C93.3523 68.1904 92.6426 67.673 92.7072 66.7676C92.7072 65.8621 93.3523 65.2154 94.3846 65.0213V63.9219H95.0297V64.9567C95.6749 64.9567 96.1265 65.1507 96.4491 65.3447L96.191 66.0561C95.933 65.9268 95.5459 65.6681 94.8362 65.6681C93.9975 65.6681 93.6749 66.1855 93.6749 66.5735C93.6749 67.1556 94.062 67.4143 95.0297 67.8023C96.1265 68.2551 96.7072 68.8371 96.7072 69.8073C96.7072 70.648 96.062 71.4888 94.9652 71.6181V72.7176L94.2556 72.7823Z" fill="url(#paint0_linear_81_860)"/>
<path d="M82.077 66.199C84.646 57.9099 80.0253 49.1026 71.7565 46.5274C63.4877 43.9521 54.7019 48.5841 52.133 56.8731C49.564 65.1622 54.1846 73.9695 62.4535 76.5447C70.7223 79.12 79.5081 74.488 82.077 66.199Z" fill="#172633"/>
<path d="M75.7391 56.9373C78.2553 61.7232 76.4488 67.6086 71.6746 70.1309C66.9003 72.6532 61.0293 70.8423 58.5132 66.121C55.997 61.3351 57.8035 55.4498 62.5132 52.9274C67.2874 50.3405 73.1584 52.1514 75.7391 56.9373Z" fill="#4B8EF9"/>
<path d="M67.9972 58.4249L66.4488 59.2657C66.8359 59.3304 67.223 59.5244 67.4811 59.9124L68.5134 59.3304L68.7714 59.7831L67.7392 60.3652C68.1908 61.4 67.7392 62.4348 66.5779 63.0815C67.7392 63.4695 69.0295 63.9869 70.3843 64.5043L69.4811 65.0864C68.2553 64.6337 67.1585 64.181 65.7391 63.7282L65.4166 63.1462L65.9327 62.8875C66.965 62.3054 67.2875 61.594 66.965 60.9472L64.8359 62.1114L64.5778 61.6587L66.7069 60.4945C66.2553 60.0418 65.6101 60.0418 64.8359 60.4945L64.1907 60.8826L63.8682 60.3005L67.8037 58.1016L67.9972 58.4249Z" fill="white"/>
<path d="M123.174 109.141L62.506 122.806C58.0879 123.778 53.7237 121.023 52.7539 116.594L43.0557 73.3315L111.698 57.8303C112.991 57.5602 114.23 58.3704 114.553 59.6127L125.006 106.224C125.221 107.574 124.413 108.817 123.174 109.141Z" fill="#3B7AF1"/>
<path d="M125.868 86.4556L115.685 88.7241C113.099 89.3182 110.566 87.6979 110.028 85.1053C109.435 82.5128 111.051 79.9743 113.638 79.4342L123.821 77.1657C126.407 76.5716 128.939 78.1919 129.478 80.7844C130.017 83.323 128.4 85.8615 125.868 86.4556Z" fill="#438BFF"/>
<path d="M127.054 81.3251C127.269 82.2433 126.677 83.1615 125.761 83.3775C124.845 83.5935 123.929 82.9994 123.713 82.0812C123.498 81.163 124.09 80.2449 125.006 80.0288C125.922 79.8128 126.838 80.4069 127.054 81.3251Z" fill="#091624"/>
<defs>
<linearGradient id="paint0_linear_81_860" x1="101.917" y1="-20.3824" x2="97.5859" y2="32.5584" gradientUnits="userSpaceOnUse">
<stop offset="1.63e-06" stop-color="#FEBCA0"/>
<stop offset="1" stop-color="#FE887D"/>
</linearGradient>
</defs>
</svg>
