<svg width="19" height="22" viewBox="0 0 19 22" fill="none" xmlns="http://www.w3.org/2000/svg">
<path d="M4.26298 20.2675L4.49597 19.5546L4.26298 20.2675ZM1.23112 17.2178L1.94481 16.9873L1.23112 17.2178ZM17.7689 17.2178L17.0552 16.9873L17.7689 17.2178ZM14.737 20.2675L14.504 19.5546L14.737 20.2675ZM14.737 7.43248L14.504 8.14537L14.737 7.43248ZM17.7689 10.4822L17.0552 10.7127L17.7689 10.4822ZM4.26298 7.43248L4.49597 8.14537L4.26298 7.43248ZM1.23112 10.4822L1.94481 10.7127L1.23112 10.4822ZM10.25 11.95C10.25 11.5358 9.91421 11.2 9.5 11.2C9.08579 11.2 8.75 11.5358 8.75 11.95H10.25ZM8.75 15.75C8.75 16.1642 9.08579 16.5 9.5 16.5C9.91421 16.5 10.25 16.1642 10.25 15.75H8.75ZM7.61111 7.95H11.3889V6.45H7.61111V7.95ZM11.3889 19.75H7.61111V21.25H11.3889V19.75ZM7.61111 19.75C5.79456 19.75 5.06513 19.7406 4.49597 19.5546L4.02998 20.9804C4.88346 21.2594 5.91191 21.25 7.61111 21.25V19.75ZM0.25 13.85C0.25 15.5601 0.240845 16.5921 0.517432 17.4484L1.94481 16.9873C1.75916 16.4125 1.75 15.6763 1.75 13.85H0.25ZM4.49597 19.5546C3.28783 19.1598 2.33855 18.2062 1.94481 16.9873L0.517432 17.4484C1.05792 19.1216 2.36287 20.4355 4.02998 20.9804L4.49597 19.5546ZM17.25 13.85C17.25 15.6763 17.2408 16.4125 17.0552 16.9873L18.4826 17.4484C18.7592 16.5921 18.75 15.5601 18.75 13.85H17.25ZM11.3889 21.25C13.0881 21.25 14.1165 21.2594 14.97 20.9804L14.504 19.5546C13.9349 19.7406 13.2054 19.75 11.3889 19.75V21.25ZM17.0552 16.9873C16.6615 18.2062 15.7122 19.1598 14.504 19.5546L14.97 20.9804C16.6371 20.4355 17.9421 19.1216 18.4826 17.4484L17.0552 16.9873ZM18.75 13.85C18.75 12.1399 18.7592 11.1079 18.4826 10.2516L17.0552 10.7127C17.2408 11.2875 17.25 12.0237 17.25 13.85H18.75ZM14.504 8.14537C15.7122 8.54023 16.6615 9.49379 17.0552 10.7127L18.4826 10.2516C17.9421 8.57839 16.6371 7.26445 14.97 6.71959L14.504 8.14537ZM1.75 13.85C1.75 12.0237 1.75916 11.2875 1.94481 10.7127L0.517432 10.2516C0.240845 11.1079 0.25 12.1399 0.25 13.85H1.75ZM4.02998 6.71959C2.36287 7.26445 1.05792 8.57839 0.517432 10.2516L1.94481 10.7127C2.33855 9.49379 3.28783 8.54023 4.49597 8.14537L4.02998 6.71959ZM13.4722 6.25V7.2H14.9722V6.25H13.4722ZM5.52778 7.2V6.25H4.02778V7.2H5.52778ZM9.5 2.25C11.6897 2.25 13.4722 4.03671 13.4722 6.25H14.9722C14.9722 3.21659 12.5264 0.75 9.5 0.75V2.25ZM9.5 0.75C6.47363 0.75 4.02778 3.21659 4.02778 6.25H5.52778C5.52778 4.03671 7.31034 2.25 9.5 2.25V0.75ZM8.75 11.95V15.75H10.25V11.95H8.75ZM7.61111 6.45C6.2799 6.45 5.3678 6.44735 4.65247 6.56857L4.90309 8.04749C5.46275 7.95265 6.21918 7.95 7.61111 7.95V6.45ZM4.65247 6.56857C4.43552 6.60534 4.23014 6.65417 4.02998 6.71959L4.49597 8.14537C4.61654 8.10597 4.74892 8.07361 4.90309 8.04749L4.65247 6.56857ZM4.02778 7.2V7.30803H5.52778V7.2H4.02778ZM11.3889 7.95C12.7808 7.95 13.5372 7.95265 14.0969 8.04749L14.3475 6.56857C13.6322 6.44735 12.7201 6.45 11.3889 6.45V7.95ZM14.0969 8.04749C14.2511 8.07361 14.3835 8.10597 14.504 8.14537L14.97 6.71959C14.7699 6.65417 14.5645 6.60534 14.3475 6.56857L14.0969 8.04749ZM13.4722 7.2V7.30803H14.9722V7.2H13.4722Z" fill="white"/>
</svg>
