<svg width="20" height="20" viewBox="0 0 20 20" fill="none" xmlns="http://www.w3.org/2000/svg">
<path d="M5.2002 14.8V2.8C5.2002 2.32261 5.38984 1.86477 5.7274 1.52721C6.06497 1.18964 6.52281 1 7.0002 1H17.2002" stroke="#485056" stroke-width="1.3" stroke-miterlimit="10" stroke-linecap="round" stroke-linejoin="round"/>
<path d="M15.4 4H19V2.8C19 2.32261 18.8104 1.86477 18.4728 1.52721C18.1352 1.18964 17.6774 1 17.2 1C16.7226 1 16.2648 1.18964 15.9272 1.52721C15.5896 1.86477 15.4 2.32261 15.4 2.8V16C15.4 16.7957 15.0839 17.5587 14.5213 18.1213C13.9587 18.6839 13.1956 19 12.4 19C11.6044 19 10.8413 18.6839 10.2787 18.1213C9.71607 17.5587 9.4 16.7957 9.4 16V14.8H1V16C1 16.7957 1.31607 17.5587 1.87868 18.1213C2.15726 18.3999 2.48797 18.6209 2.85195 18.7716C3.21593 18.9224 3.60603 19 4 19H12.4" stroke="#485056" stroke-width="1.3" stroke-miterlimit="10" stroke-linecap="round" stroke-linejoin="round"/>
<path d="M7.59961 11.1988H11.1996M7.59961 3.99878H12.3996H7.59961ZM7.59961 8.79878H12.3996H7.59961ZM7.59961 6.39878H11.1996H7.59961Z" stroke="#485056" stroke-width="1.3" stroke-miterlimit="10" stroke-linecap="round" stroke-linejoin="round"/>
</svg>
