<svg width="12" height="13" viewBox="0 0 12 13" fill="none" xmlns="http://www.w3.org/2000/svg">
<path d="M1.89504 11.9509L2.19554 11.5513L1.89504 11.9509ZM1.28051 11.3149L1.68974 11.0276L1.28051 11.3149ZM10.2195 11.3149L9.81026 11.0276L10.2195 11.3149ZM9.60496 11.9509L9.90546 12.3505L9.60496 11.9509ZM9.60496 2.69908L9.90546 2.29945L9.60496 2.69908ZM10.2195 3.33512L9.81026 3.62239L10.2195 3.33512ZM1.89504 2.69908L2.19554 3.0987H2.19555L1.89504 2.69908ZM1.28051 3.33512L1.68974 3.62239H1.68974L1.28051 3.33512ZM9.7599 9.0854L9.67902 8.59198L9.7599 9.0854ZM7.45087 11.4753L6.95662 11.3996L7.45087 11.4753ZM4.08333 7.4C3.80719 7.4 3.58333 7.62386 3.58333 7.9C3.58333 8.17614 3.80719 8.4 4.08333 8.4V7.4ZM7.41667 8.4C7.69281 8.4 7.91667 8.17614 7.91667 7.9C7.91667 7.62386 7.69281 7.4 7.41667 7.4V8.4ZM6.91667 2.725C6.91667 3.00114 7.14052 3.225 7.41667 3.225C7.69281 3.225 7.91667 3.00114 7.91667 2.725H6.91667ZM7.91667 1C7.91667 0.723858 7.69281 0.5 7.41667 0.5C7.14052 0.5 6.91667 0.723858 6.91667 1H7.91667ZM3.58333 2.725C3.58333 3.00114 3.80719 3.225 4.08333 3.225C4.35948 3.225 4.58333 3.00114 4.58333 2.725H3.58333ZM4.58333 1C4.58333 0.723858 4.35948 0.5 4.08333 0.5C3.80719 0.5 3.58333 0.723858 3.58333 1H4.58333ZM10.7339 9.05L11.2337 9.06654L10.7339 9.05ZM0.766071 5.6L0.266345 5.58346L0.766071 5.6ZM10.7339 5.6L11.2337 5.58346L10.7339 5.6ZM5.75 12C4.69689 12 3.94861 11.9993 3.37086 11.9345C2.80352 11.8709 2.46056 11.7506 2.19554 11.5513L1.59454 12.3505C2.05971 12.7003 2.60263 12.8546 3.25943 12.9283C3.90582 13.0007 4.71993 13 5.75 13V12ZM0.25 7.325C0.25 8.39228 0.249359 9.23156 0.319031 9.89713C0.38958 10.5711 0.536756 11.1256 0.871272 11.6022L1.68974 11.0276C1.49375 10.7484 1.37567 10.386 1.3136 9.79302C1.25064 9.19161 1.25 8.41382 1.25 7.325H0.25ZM2.19554 11.5513C2.00209 11.4058 1.83128 11.2292 1.68974 11.0276L0.871272 11.6022C1.07241 11.8887 1.31635 12.1414 1.59454 12.3505L2.19554 11.5513ZM9.81026 11.0276C9.66873 11.2292 9.49791 11.4058 9.30445 11.5513L9.90546 12.3505C10.1836 12.1414 10.4276 11.8887 10.6287 11.6022L9.81026 11.0276ZM9.30445 3.0987C9.49791 3.24417 9.66873 3.42077 9.81026 3.62239L10.6287 3.04784C10.4276 2.76132 10.1836 2.50864 9.90546 2.29945L9.30445 3.0987ZM1.59454 2.29945C1.31635 2.50864 1.07241 2.76132 0.871272 3.04784L1.68974 3.62239C1.83128 3.42077 2.00209 3.24417 2.19554 3.0987L1.59454 2.29945ZM9.67902 8.59198C8.26712 8.82343 7.17614 9.96509 6.95662 11.3996L7.94511 11.5509C8.1021 10.525 8.87551 9.73705 9.84079 9.57881L9.67902 8.59198ZM4.08333 8.4H7.41667V7.4H4.08333V8.4ZM10.7339 8.55C10.2474 8.55 9.94281 8.54874 9.67902 8.59198L9.84079 9.57881C10.0043 9.552 10.2096 9.55 10.7339 9.55L10.7339 8.55ZM10.25 7.325C10.25 7.99981 10.2499 8.55799 10.2342 9.03346L11.2337 9.06654C11.2501 8.57101 11.25 7.99446 11.25 7.325H10.25ZM10.2342 9.03346C10.1989 10.1005 10.0833 10.6386 9.81026 11.0276L10.6287 11.6022C11.0859 10.9509 11.198 10.1434 11.2337 9.06654L10.2342 9.03346ZM7.91667 12.4834C7.91667 11.9425 7.91845 11.7251 7.94511 11.5509L6.95662 11.3996C6.9156 11.6677 6.91667 11.978 6.91667 12.4834L7.91667 12.4834ZM5.75 13C6.39654 13 6.95456 13.0001 7.43439 12.9831L7.39895 11.9837C6.94061 11.9999 6.40227 12 5.75 12V13ZM7.43439 12.9831C8.47761 12.9461 9.26878 12.8293 9.90546 12.3505L9.30445 11.5513C8.93602 11.8284 8.42704 11.9472 7.39895 11.9837L7.43439 12.9831ZM1.25 7.325C1.25 6.65019 1.25006 6.09201 1.2658 5.61654L0.266345 5.58346C0.249942 6.07899 0.25 6.65554 0.25 7.325H1.25ZM1.2658 5.61654C1.30112 4.54954 1.41668 4.01139 1.68974 3.62239L0.871272 3.04784C0.41408 3.69914 0.30199 4.50665 0.266345 5.58346L1.2658 5.61654ZM0.766071 6.1H10.7339V5.1H0.766071V6.1ZM11.25 7.325C11.25 6.65554 11.2501 6.07899 11.2337 5.58346L10.2342 5.61654C10.2499 6.09201 10.25 6.65019 10.25 7.325H11.25ZM11.2337 5.58346C11.198 4.50665 11.0859 3.69914 10.6287 3.04784L9.81026 3.62239C10.0833 4.01139 10.1989 4.54954 10.2342 5.61654L11.2337 5.58346ZM7.91667 2.725V2.16663H6.91667V2.725H7.91667ZM7.91667 2.16663V1H6.91667V2.16663H7.91667ZM5.75 2.65C6.40227 2.65 6.94062 2.65007 7.39895 2.66632L7.43439 1.66695C6.95456 1.64993 6.39654 1.65 5.75 1.65V2.65ZM7.39895 2.66632C8.42704 2.70278 8.93602 2.82164 9.30445 3.0987L9.90546 2.29945C9.26878 1.82069 8.47761 1.70394 7.43439 1.66695L7.39895 2.66632ZM4.58333 2.725V2.16663H3.58333V2.725H4.58333ZM4.58333 2.16663V1H3.58333V2.16663H4.58333ZM5.75 1.65C5.10346 1.65 4.54544 1.64993 4.06561 1.66695L4.10105 2.66632C4.55939 2.65007 5.09773 2.65 5.75 2.65V1.65ZM4.06561 1.66695C3.02239 1.70394 2.23122 1.82069 1.59454 2.29945L2.19555 3.0987C2.56398 2.82164 3.07296 2.70278 4.10105 2.66632L4.06561 1.66695Z" fill="#3B7AF1"/>
</svg>
