<svg width="18" height="19" viewBox="0 0 18 19" fill="none" xmlns="http://www.w3.org/2000/svg">
<path fill-rule="evenodd" clip-rule="evenodd" d="M17.6968 0.182287C18.048 0.466612 18.1023 0.981827 17.8179 1.33305L8.5438 12.7893C8.39099 12.9781 8.1622 13.0892 7.91935 13.0927C7.6765 13.0961 7.44469 12.9914 7.28662 12.807L4.0134 8.98824C3.71932 8.64515 3.75905 8.12861 4.10215 7.83453C4.44524 7.54045 4.96178 7.58018 5.25586 7.92328L7.88989 10.9963L16.546 0.30342C16.8304 -0.0478043 17.3456 -0.102037 17.6968 0.182287Z" fill="#3B7AF1"/>
<path fill-rule="evenodd" clip-rule="evenodd" d="M10.3235 4.29974C9.55933 3.98135 8.73948 3.81796 7.91159 3.81904L7.91055 3.81904C6.62829 3.81908 5.37684 4.21199 4.32466 4.94485C3.27249 5.67772 2.47011 6.71537 2.02556 7.9181C1.58101 9.12082 1.51564 10.4309 1.83823 11.6719C2.16082 12.9129 2.8559 14.0253 3.82988 14.8593C4.80386 15.6932 6.00998 16.2088 7.28586 16.3365C8.56174 16.4642 9.84611 16.1979 10.9661 15.5735C12.086 14.9491 12.9878 13.9966 13.5499 12.8441C14.1121 11.6917 14.3077 10.3946 14.1103 9.12768C14.0408 8.68118 14.3463 8.26283 14.7928 8.19328C15.2393 8.12373 15.6577 8.42931 15.7272 8.87581C15.9761 10.4732 15.7295 12.1085 15.0207 13.5616C14.3119 15.0146 13.175 16.2156 11.7629 17.0028C10.3509 17.7901 8.73152 18.1258 7.12288 17.9648C5.51424 17.8038 3.99355 17.1538 2.76554 16.1023C1.53754 15.0508 0.661176 13.6483 0.254446 12.0836C-0.152284 10.5189 -0.069854 8.86717 0.490638 7.35076C1.05113 5.83435 2.06277 4.52607 3.38937 3.60206C4.71583 2.67815 6.29349 2.18278 7.91 2.18262C8.95445 2.18133 9.98875 2.3875 10.9529 2.78918C11.37 2.96297 11.5673 3.442 11.3935 3.85913C11.2197 4.27626 10.7407 4.47353 10.3235 4.29974ZM7.91052 3.00083L7.90945 2.18262C7.90963 2.18262 7.90981 2.18262 7.91 2.18262C7.91016 2.18262 7.91033 2.18262 7.91049 2.18262L7.91052 3.00083ZM7.91052 3.00114L7.91052 3.00083L7.91052 3.00114Z" fill="#3B7AF1"/>
</svg>
